<svg width="168" height="168" xmlns="http://www.w3.org/2000/svg">
 <style type="text/css">.st0{fill:#F37645;}
	.st1{fill:#333333;}
	.st2{fill:#343333;}
 </style>
 <g>
  <title>background</title>
  <rect fill="none" id="canvas_background" height="170" width="170" y="-1" x="-1"/>
 </g>
 <g>
  <title>Layer 1</title>
  <rect id="svg_1" height="108.02" width="80.86" class="st0" y="13.01" x="83.27"/>
  <path id="svg_2" d="m158.95,65.67c0,11.65 -0.06,23.3 0.02,34.94c0.08,12.05 -10.02,16.86 -20.86,14.58c-2.84,-0.6 -3.55,-2.78 -3.38,-5.32c0.16,-2.46 1.44,-3.84 4.03,-4.23c10.4,-1.59 10.39,-1.64 10.39,-12.08c0,-17.64 0.01,-35.28 -0.01,-52.92c-0.01,-6.17 -0.77,-6.95 -6.86,-6.96c-13.15,-0.02 -26.29,-0.08 -39.44,0.02c-5.93,0.05 -10.25,-2.58 -13.18,-7.47c-1.26,-2.1 -2.41,-5.01 0.61,-6.55c2.48,-1.26 5.94,-1.84 7.62,1.01c1.84,3.12 4.31,3.19 7.18,3.18c15.81,-0.01 31.62,0.13 47.42,-0.09c4.84,-0.07 6.54,1.83 6.49,6.44c-0.11,11.82 -0.03,23.64 -0.03,35.45z" class="st1"/>
  <path id="svg_3" d="m88.48,78.51c0,-10.46 0.08,-20.92 -0.05,-31.38c-0.05,-3.67 1.04,-5.58 5.08,-5.52c3.78,0.05 4.86,1.88 4.85,5.29c-0.05,20.92 -0.06,41.84 0.01,62.77c0.01,3.63 -1.35,5.82 -5.12,5.78c-3.91,-0.05 -4.85,-2.54 -4.81,-6.04c0.11,-10.31 0.04,-20.61 0.04,-30.9z" class="st2"/>
  <path id="svg_4" d="m75.18,53.32c-0.01,-12.08 -0.04,-12.18 -11.94,-12.34c-4.08,-0.05 -6.74,-0.96 -6.86,-5.72c-0.12,-4.52 1.64,-6.93 6.28,-7c2.33,-0.04 4.66,-0.35 6.98,-0.21c3.45,0.22 5.57,-1 5.48,-4.64c-0.09,-3.64 -2.33,-4.48 -5.71,-4.46c-18.8,0.13 -37.6,0.06 -56.39,0.09c-1.48,0 -2.99,0.09 -4.44,0.39c-2.88,0.58 -3.38,2.63 -3.17,5.25c0.21,2.64 1.73,3.26 4.01,3.32c3.32,0.08 6.65,0.23 9.96,0.52c1.84,0.16 3.52,0.65 4.12,2.91c1.73,6.55 -0.34,9.39 -7.09,9.51c-1.5,0.03 -3.01,0.18 -4.49,0.02c-4.72,-0.5 -6.61,1.45 -6.51,6.25c0.21,10.48 0.07,20.96 0.07,31.44c-0.01,0 -0.02,0 -0.03,0c0,10.81 0.12,21.63 -0.07,32.44c-0.05,3.13 0.93,3.92 3.96,3.89c17.97,-0.14 35.93,-0.1 53.9,-0.05c3.02,0.01 5.35,-1.08 7.61,-3.02c3.69,-3.16 4.3,-7.33 4.32,-11.7c0.04,-15.62 0.03,-31.26 0.01,-46.89zm-34.75,-25.16c5.19,0.11 6.87,1.93 6.92,6.94c0.05,5.09 -2.9,6.2 -6.63,5.86c-6.13,-0.02 -7.37,-1.24 -7.28,-6.67c0.07,-4.71 1.81,-6.24 6.99,-6.13zm-25.51,26.3c0.22,-2.75 2.03,-4.2 4.72,-3.98c2.61,0.22 4.1,1.58 3.98,4.58c-0.19,4.8 -0.05,9.61 -0.05,14.41c0,4.47 -0.04,8.95 0.01,13.42c0.03,2.64 -1.16,3.98 -3.81,4.14c-2.78,0.17 -4.61,-0.94 -4.79,-3.78c-0.64,-9.58 -0.83,-19.19 -0.06,-28.79zm44.78,51.1c-6.49,-0.03 -12.98,-0.01 -19.47,-0.01c-6.66,0 -13.31,-0.03 -19.97,0.02c-3.08,0.02 -5.46,-1.06 -5.45,-4.38c0.01,-3.31 2.36,-4.16 5.46,-4.31c7.78,-0.38 13.1,-6.18 13.12,-13.86c0.03,-8.82 0.23,-17.64 0.06,-26.46c-0.09,-4.85 2.28,-6.53 6.68,-6.55c5.19,-0.02 7.03,1.57 7.1,6.7c0.13,8.99 0.1,17.97 0.17,26.96c0.06,7.6 4.96,12.89 12.46,13.23c2.97,0.13 5.37,0.58 5.49,4.19c0.15,4.03 -2.54,4.49 -5.65,4.47zm1.45,-18.49c-3.11,0.02 -4.57,-1.74 -4.59,-4.65c-0.07,-9.11 -0.09,-18.22 0,-27.32c0.03,-2.91 1.77,-4.8 4.66,-4.71c2.91,0.09 4.26,1.99 4.17,5.03c-0.13,4.47 -0.03,8.94 -0.03,13.41c0.01,0 0.02,0 0.02,0c0,4.47 -0.05,8.94 0.02,13.41c0.02,2.96 -1.03,4.82 -4.25,4.83z" class="st1"/>
  <g id="svg_5">
   <g id="svg_6">
    <line id="svg_7" y2="150.68" x2="32.02" y1="150.68" x1="2.35" class="st1"/>
    <rect id="svg_8" height="1" width="29.67" class="st1" y="150.18" x="2.35"/>
   </g>
   <g id="svg_9">
    <rect id="svg_10" height="1" width="29.67" class="st1" y="150.18" x="2.35"/>
    <path id="svg_11" d="m32.52,151.68l-30.67,0l0,-2l30.67,0l0,2zm-29.67,-1l28.67,0l-28.67,0z" class="st1"/>
   </g>
  </g>
  <g id="svg_12">
   <g id="svg_13">
    <line id="svg_14" y2="150.68" x2="164.13" y1="150.68" x1="134.46" class="st1"/>
    <rect id="svg_15" height="1" width="29.67" class="st1" y="150.18" x="134.46"/>
   </g>
   <g id="svg_16">
    <rect id="svg_17" height="1" width="29.67" class="st1" y="150.18" x="134.46"/>
    <path id="svg_18" d="m164.63,151.68l-30.67,0l0,-2l30.67,0l0,2zm-29.67,-1l28.67,0l-28.67,0z" class="st1"/>
   </g>
  </g>
  <g id="svg_19">
   <g id="svg_20">
    <path id="svg_21" d="m43.74,158.65l-4.37,-16.46l2.23,0l2.5,10.79c0.27,1.13 0.5,2.25 0.7,3.37c0.42,-1.76 0.67,-2.77 0.74,-3.04l3.13,-11.12l2.63,0l2.36,8.33c0.59,2.07 1.02,4.01 1.28,5.83c0.21,-1.04 0.48,-2.23 0.82,-3.58l2.58,-10.58l2.19,0l-4.51,16.46l-2.1,0l-3.47,-12.54c-0.29,-1.05 -0.46,-1.69 -0.52,-1.93c-0.17,0.76 -0.33,1.4 -0.48,1.93l-3.49,12.54l-2.22,0z" class="st1"/>
   </g>
   <g id="svg_22">
    <path id="svg_23" d="m62.57,158.65l0,-16.46l5.67,0c1.28,0 2.26,0.08 2.93,0.24c0.94,0.22 1.75,0.61 2.41,1.18c0.87,0.73 1.52,1.67 1.95,2.81s0.65,2.45 0.65,3.91c0,1.25 -0.15,2.36 -0.44,3.32c-0.29,0.97 -0.67,1.77 -1.12,2.4c-0.46,0.63 -0.96,1.13 -1.5,1.49s-1.2,0.64 -1.96,0.83c-0.77,0.19 -1.65,0.28 -2.65,0.28l-5.94,0zm2.18,-1.94l3.52,0c1.08,0 1.94,-0.1 2.55,-0.3c0.62,-0.2 1.11,-0.49 1.48,-0.85c0.52,-0.52 0.92,-1.21 1.21,-2.08s0.43,-1.93 0.43,-3.17c0,-1.72 -0.28,-3.04 -0.85,-3.97s-1.25,-1.54 -2.06,-1.86c-0.58,-0.22 -1.52,-0.34 -2.82,-0.34l-3.46,0l0,12.57z" class="st1"/>
   </g>
   <g id="svg_24">
    <path id="svg_25" d="m90.93,152.88l2.18,0.55c-0.46,1.79 -1.28,3.15 -2.46,4.09s-2.64,1.41 -4.35,1.41c-1.77,0 -3.22,-0.36 -4.33,-1.08c-1.11,-0.72 -1.96,-1.77 -2.54,-3.14c-0.58,-1.37 -0.87,-2.84 -0.87,-4.41c0,-1.71 0.33,-3.21 0.98,-4.49s1.59,-2.25 2.8,-2.91c1.21,-0.66 2.54,-0.99 3.99,-0.99c1.65,0 3.03,0.42 4.16,1.26c1.12,0.84 1.91,2.02 2.35,3.54l-2.15,0.51c-0.38,-1.2 -0.94,-2.07 -1.66,-2.62s-1.64,-0.82 -2.74,-0.82c-1.27,0 -2.32,0.3 -3.17,0.91s-1.45,1.42 -1.79,2.44c-0.34,1.02 -0.52,2.08 -0.52,3.16c0,1.4 0.2,2.62 0.61,3.67c0.41,1.04 1.04,1.83 1.9,2.34s1.79,0.77 2.8,0.77c1.22,0 2.25,-0.35 3.1,-1.05c0.84,-0.71 1.41,-1.75 1.71,-3.14z" class="st1"/>
   </g>
   <g id="svg_26">
    <path id="svg_27" d="m95.72,158.65l0,-16.46l3.28,0l3.9,11.66c0.36,1.09 0.62,1.9 0.79,2.44c0.19,-0.6 0.48,-1.48 0.88,-2.64l3.94,-11.46l2.93,0l0,16.46l-2.1,0l0,-13.78l-4.78,13.78l-1.97,0l-4.76,-14.02l0,14.02l-2.11,0z" class="st1"/>
   </g>
   <g id="svg_28">
    <path id="svg_29" d="m114.21,153.37l2.05,-0.18c0.1,0.82 0.32,1.5 0.68,2.03c0.36,0.53 0.91,0.96 1.66,1.28c0.75,0.33 1.59,0.49 2.53,0.49c0.83,0 1.56,-0.12 2.2,-0.37s1.11,-0.59 1.42,-1.02s0.47,-0.9 0.47,-1.41c0,-0.52 -0.15,-0.97 -0.45,-1.35s-0.79,-0.71 -1.48,-0.97c-0.44,-0.17 -1.42,-0.44 -2.93,-0.8c-1.51,-0.36 -2.57,-0.71 -3.18,-1.03c-0.79,-0.41 -1.37,-0.92 -1.76,-1.53s-0.58,-1.29 -0.58,-2.05c0,-0.83 0.24,-1.61 0.71,-2.33c0.47,-0.72 1.16,-1.27 2.07,-1.65c0.91,-0.37 1.91,-0.56 3.02,-0.56c1.22,0 2.3,0.2 3.23,0.59c0.93,0.39 1.65,0.97 2.15,1.74c0.5,0.76 0.77,1.63 0.81,2.59l-2.09,0.16c-0.11,-1.04 -0.49,-1.83 -1.14,-2.36c-0.65,-0.53 -1.6,-0.8 -2.87,-0.8c-1.32,0 -2.28,0.24 -2.88,0.72c-0.6,0.48 -0.9,1.06 -0.9,1.75c0,0.59 0.21,1.08 0.64,1.46c0.42,0.38 1.51,0.77 3.29,1.17s2.99,0.75 3.64,1.05c0.96,0.44 1.67,1 2.12,1.68s0.68,1.46 0.68,2.34c0,0.88 -0.25,1.7 -0.75,2.48c-0.5,0.77 -1.22,1.38 -2.16,1.81s-2,0.65 -3.17,0.65c-1.49,0 -2.74,-0.22 -3.75,-0.65c-1.01,-0.43 -1.8,-1.09 -2.37,-1.96c-0.58,-0.89 -0.88,-1.88 -0.91,-2.97z" class="st1"/>
   </g>
  </g>
 </g>
</svg>
