<svg t="1611124035478" class="icon" viewBox="0 0 1024 1024" version="1.1" xmlns="http://www.w3.org/2000/svg" p-id="8398">
    <path
        d="M682.374 784.241c0.31 0.381 0.64 0.753 0.996 1.109 0.616 0.615 1.277 1.149 1.968 1.627a186.064 186.064 0 0 1 4.084 3.946c26.406 26.406 43.004 58.905 49.813 92.97 0.117 1.916 0.325 3.828 0.63 5.73 0.336 2.095 0.783 4.17 1.343 6.224A58.76 58.76 0 0 0 756.39 922c23.046 23.04 60.406 23.04 83.45 0 23.041-23.046 23.041-60.405 0-83.45a58.73 58.73 0 0 0-31.969-16.461 56.754 56.754 0 0 0-3.57-0.488c-34.913-6.51-68.291-23.254-95.298-50.26a183.375 183.375 0 0 1-5.675-5.95l-0.01 0.005c-5.507-5.507-14.441-5.507-19.949 0-5.156 5.156-5.486 13.302-0.996 18.845"
        p-id="8399" fill="#ffffff"></path>
    <path
        d="M868.944 829.58c0.38-0.311 0.752-0.642 1.108-0.997a14.104 14.104 0 0 0 1.627-1.968 186.064 186.064 0 0 1 3.946-4.084c26.407-26.406 58.905-43.004 92.97-49.813a58.757 58.757 0 0 0 5.73-0.63 59.499 59.499 0 0 0 6.225-1.343 58.76 58.76 0 0 0 26.152-15.184c23.04-23.045 23.04-60.405 0-83.45-23.045-23.04-60.405-23.04-83.45 0a58.73 58.73 0 0 0-16.46 31.97 56.754 56.754 0 0 0-0.489 3.57c-6.509 34.913-23.254 68.291-50.26 95.298a183.375 183.375 0 0 1-5.95 5.675l0.005 0.01c-5.507 5.507-5.507 14.441 0 19.949 5.157 5.156 13.303 5.486 18.846 0.996"
        p-id="8400" fill="#ffffff"></path>
    <path
        d="M914.277 643.01c-0.31-0.382-0.641-0.753-0.997-1.11a14.104 14.104 0 0 0-1.968-1.626 186.064 186.064 0 0 1-4.083-3.946c-26.407-26.407-43.004-58.905-49.813-92.97a58.757 58.757 0 0 0-0.63-5.73 59.499 59.499 0 0 0-1.343-6.225 58.76 58.76 0 0 0-15.184-26.152c-23.045-23.04-60.405-23.04-83.45 0-23.04 23.045-23.04 60.405 0 83.45a58.73 58.73 0 0 0 31.969 16.46c1.19 0.199 2.375 0.367 3.57 0.489 34.914 6.509 68.292 23.254 95.298 50.26a183.375 183.375 0 0 1 5.675 5.95l0.01-0.005c5.507 5.507 14.442 5.507 19.949 0 5.156-5.157 5.487-13.303 0.997-18.846"
        p-id="8401" fill="#ffffff"></path>
    <path
        d="M727.712 597.676c-0.381 0.31-0.753 0.641-1.109 0.997a14.104 14.104 0 0 0-1.627 1.968 186.064 186.064 0 0 1-3.946 4.083c-26.406 26.407-58.905 43.004-92.97 49.813a58.757 58.757 0 0 0-5.73 0.63c-2.095 0.336-4.17 0.784-6.224 1.343a58.76 58.76 0 0 0-26.153 15.184c-23.04 23.045-23.04 60.405 0 83.45 23.046 23.04 60.405 23.04 83.45 0a58.73 58.73 0 0 0 16.461-31.97c0.198-1.189 0.366-2.374 0.488-3.569 6.509-34.914 23.254-68.292 50.26-95.298a183.375 183.375 0 0 1 5.95-5.675l-0.005-0.01c5.507-5.507 5.507-14.442 0-19.949-5.156-5.156-13.302-5.487-18.845-0.997"
        p-id="8402" fill="#ffffff"></path>
    <path
        d="M815.449 309.36c-16.41-33.724-38.463-65.027-65.541-93.046-68.424-70.768-164.221-116.35-269.735-128.346-18.942-2.15-37.716-3.239-55.803-3.239-17.239 0-35.214 1.002-53.429 2.985-105.987 11.523-202.313 56.866-271.24 127.68-27.205 27.952-49.371 59.185-65.897 92.817C11.384 353.854 0.019 402.304 0.019 452.214c0 64.26 19.552 127.619 56.545 183.24 20.92 31.455 56.693 72.11 87.315 97.021l-16.958 70.148-4.887 19.756a32.164 32.164 0 0 0-1.993 6.097c-0.29 1.291-0.377 2.649-0.504 3.997-0.096 1.022-0.31 2.008-0.31 3.06 0 18.037 14.62 32.657 32.661 32.657 5.894 0 11.35-1.683 16.125-4.414 0.147-0.086 0.31-0.163 0.452-0.25 0.702-0.411 1.414-0.777 2.08-1.235l121.126-60.796c26.07 7.48 51.938 12.265 79.214 15.265a490.411 490.411 0 0 0 53.485 2.939c18.112 0 36.886-1.093 55.803-3.244 37.197-4.226 72.975-12.8 106.938-24.988a59.176 59.176 0 0 1-10.765-4.81c-20.778-11.884-31.538-34.492-29.402-56.866-24.27 7.708-49.614 13.236-75.818 16.21-15.895 1.81-31.634 2.726-46.756 2.726-14.864 0-29.926-0.829-44.764-2.461-3.097-0.34-6.178-0.814-9.265-1.225-20.386-2.716-40.538-6.87-60.003-12.576-3.967-1.266-8.167-1.907-12.474-1.907-6.712 0-13.226 1.775-19.831 5.202-0.855 0.443-1.704 0.809-2.563 1.312l-77.72 45.801-0.081 0.046c-1.612 0.94-2.522 1.292-3.356 1.292-2.731 0-4.948-2.31-4.948-5.147l2.873-11.609c0.803-3.06 1.937-7.373 3.31-12.616 3.397-12.936 8.04-30.632 11.487-43.766 0.748-2.685 1.51-5.91 1.51-9.53 0-10.002-4.784-19.455-12.758-25.262-4.058-3-8.11-6.148-12.372-9.616-6.524-5.309-12.763-10.841-18.768-16.537-16.873-16.002-31.685-33.47-44.128-52.182-29.3-44.047-44.784-94.027-44.784-144.547 0-39.206 8.965-77.333 26.64-113.315 13.206-26.88 30.993-51.908 52.874-74.394 56.658-58.213 136.335-95.538 224.347-105.108 15.321-1.667 30.383-2.512 44.774-2.512 15.107 0 30.84 0.916 46.756 2.726 87.605 9.962 166.82 47.474 223.055 105.636 21.78 22.532 39.47 47.617 52.584 74.562 17.391 35.753 26.214 73.57 26.214 112.405 0 4.037-0.254 8.06-0.453 12.087 22.725-13.908 52.757-11.177 72.426 8.492 0.997 0.992 1.831 2.08 2.736 3.127 0.651-8.273 1.012-16.572 1.012-24.891 0-49.447-11.187-97.51-33.251-142.854"
        p-id="8403" fill="#ffffff"></path>
</svg>
